<svg width="21" height="20" viewBox="0 0 21 20" fill="none" xmlns="http://www.w3.org/2000/svg">
<path d="M11.37 0.0938329C8.97724 -0.235312 6.54622 0.312385 4.5258 1.63579C2.50538 2.9592 1.03202 4.96893 0.377773 7.2939C-0.276473 9.61886 -0.0674181 12.102 0.966337 14.2849C2.00009 16.4677 3.78873 18.2029 6.00197 19.1698C5.94212 18.4016 5.99706 17.6288 6.16497 16.8768C6.34997 16.0378 7.46097 11.4138 7.46097 11.4138C7.23974 10.9179 7.12918 10.3798 7.13697 9.83683C7.13697 8.35183 7.99397 7.24383 9.05997 7.24383C9.25148 7.24105 9.44134 7.27953 9.61665 7.35666C9.79195 7.4338 9.9486 7.54778 10.0759 7.69086C10.2032 7.83393 10.2983 8.00275 10.3545 8.18582C10.4108 8.3689 10.427 8.56194 10.402 8.75183C10.402 9.65183 9.82397 11.0138 9.52197 12.2918C9.46229 12.5262 9.4585 12.7713 9.51092 13.0075C9.56333 13.2436 9.67048 13.4641 9.82373 13.6512C9.97698 13.8383 10.172 13.9868 10.3932 14.0847C10.6144 14.1826 10.8554 14.2272 11.097 14.2148C12.995 14.2148 14.267 11.7838 14.267 8.91383C14.267 6.71383 12.81 5.06583 10.124 5.06583C9.48135 5.04086 8.84035 5.14676 8.23991 5.37709C7.63946 5.60742 7.09209 5.95738 6.63102 6.40572C6.16996 6.85406 5.80483 7.39144 5.5578 7.98521C5.31076 8.57898 5.18698 9.21676 5.19397 9.85983C5.16534 10.5732 5.39548 11.2728 5.84197 11.8298C5.92541 11.8921 5.98633 11.9798 6.01555 12.0798C6.04477 12.1797 6.04071 12.2864 6.00397 12.3838C5.95797 12.5678 5.84197 13.0068 5.79597 13.1678C5.7864 13.2224 5.76415 13.274 5.731 13.3184C5.69784 13.3629 5.65472 13.3989 5.6051 13.4236C5.55549 13.4483 5.50076 13.461 5.44533 13.4607C5.3899 13.4604 5.33531 13.4471 5.28597 13.4218C3.90197 12.8678 3.24997 11.3448 3.24997 9.60583C3.24997 6.75883 5.63397 3.35083 10.404 3.35083C14.2 3.35083 16.724 6.12783 16.724 9.09783C16.724 13.0068 14.547 15.9458 11.33 15.9458C10.8492 15.9612 10.3722 15.8551 9.94331 15.6373C9.51437 15.4195 9.14728 15.0971 8.87597 14.6998C8.87597 14.6998 8.29797 17.0158 8.18397 17.4538C7.95127 18.2105 7.60788 18.9286 7.16497 19.5848C8.08797 19.8648 9.04697 20.0048 10.011 20.0008C11.3246 20.0019 12.6254 19.7438 13.8391 19.2414C15.0528 18.739 16.1555 18.0021 17.084 17.0729C18.0126 16.1438 18.7487 15.0406 19.2502 13.8265C19.7518 12.6125 20.0089 11.3114 20.007 9.99783C20.0057 7.58283 19.1308 5.24983 17.5436 3.42961C15.9564 1.6094 13.7643 0.424897 11.372 0.0948328L11.37 0.0938329Z" fill="#7F713E"/>
</svg>
