<svg width="143" height="13" viewBox="0 0 143 13" fill="none" xmlns="http://www.w3.org/2000/svg">
<path d="M12.4969 1.10645H10.9834V12.7965H18.4786V11.8816H12.4969V1.10645Z" fill="white"/>
<path d="M21.1309 12.7965H28.6261V11.8816H22.6443V8.70134H27.7757V7.94621H22.6443V2.03584H28.6261V1.10645H21.1309V12.7965Z" fill="white"/>
<path d="M37.7934 11.141H37.7213L32.4026 1.10645H31.2783V12.7965H32.0134V3.27019H32.0711L37.2024 12.9998H37.4907L42.7373 3.32828H42.795V12.7965H44.3085V1.10645H43.1698L37.7934 11.141Z" fill="white"/>
<path d="M48.4453 12.7965H55.9405V11.8816H49.9588V9.09343H55.1045V8.32377H49.9588V2.03584H55.9405V1.10645H48.4453V12.7965Z" fill="white"/>
<path d="M67.9474 10.052H67.8753L58.6793 0.90332H58.5928V12.7967H59.3567V3.86577H59.4288L68.6248 13H68.7113V1.10662H67.9474V10.052Z" fill="white"/>
<path d="M71.1895 2.03584H75.6289V12.7965H77.1424V2.03584H81.5819V1.10645H71.1895V2.03584Z" fill="white"/>
<path d="M98.49 6.21811H91.5425V1.10645H90.0435V12.7965H91.5425V6.98777H98.49V12.7965H100.003V1.10645H98.49V6.21811Z" fill="white"/>
<path d="M114.115 2.99445C113.581 2.38454 112.918 1.8908 112.097 1.49871C111.289 1.10663 110.324 0.90332 109.214 0.90332C108.118 0.90332 107.182 1.0921 106.403 1.48419C105.625 1.87628 104.976 2.37002 104.457 2.96541C103.953 3.5608 103.578 4.21429 103.333 4.92585C103.102 5.63742 102.973 6.30542 102.973 6.94438C102.973 7.56882 103.088 8.23682 103.333 8.93386C103.578 9.64543 103.938 10.2989 104.457 10.8943C104.962 11.4897 105.61 11.998 106.403 12.39C107.182 12.7821 108.133 12.9854 109.214 12.9854C109.949 12.9854 110.626 12.8983 111.232 12.7095C111.837 12.5207 112.371 12.2739 112.861 11.9689C113.336 11.664 113.754 11.3009 114.115 10.8943C114.461 10.4877 114.763 10.0666 114.979 9.60186C115.21 9.15169 115.383 8.70152 115.498 8.23682C115.614 7.78664 115.671 7.35099 115.671 6.92986C115.671 6.30542 115.542 5.63742 115.297 4.94037C115.037 4.25785 114.648 3.60437 114.115 2.99445ZM113.668 9.10812C113.408 9.7616 113.062 10.3134 112.63 10.7927C112.198 11.2573 111.693 11.6204 111.102 11.8818C110.526 12.1432 109.906 12.2739 109.257 12.2739C108.594 12.2739 107.974 12.1432 107.412 11.8818C106.85 11.6204 106.36 11.2573 105.942 10.7927C105.524 10.328 105.207 9.7616 104.962 9.10812C104.731 8.45464 104.601 7.74308 104.601 6.9589C104.601 6.17472 104.717 5.46316 104.962 4.80968C105.207 4.1562 105.524 3.60437 105.942 3.13968C106.36 2.67498 106.85 2.31193 107.412 2.05054C107.974 1.78915 108.594 1.65845 109.257 1.65845C109.906 1.65845 110.526 1.78915 111.102 2.05054C111.679 2.31193 112.198 2.67498 112.63 3.13968C113.062 3.60437 113.408 4.17072 113.668 4.80968C113.927 5.46316 114.043 6.17472 114.043 6.9589C114.043 7.74308 113.913 8.45464 113.668 9.10812Z" fill="white"/>
<path d="M125.17 11.141H125.098L119.78 1.10645H118.655V12.7965H119.376V3.27019H119.448L124.565 12.9998H124.868L130.1 3.32828H130.172V12.7965H131.685V1.10645H130.532L125.17 11.141Z" fill="white"/>
<path d="M0 12.7966H8.33122V11.8817H1.51346V10.7926C1.93146 9.79059 2.92602 9.09355 4.06471 9.09355H7.74025V8.33842H4.06471C3.05574 8.33842 2.16208 8.77407 1.51346 9.4566V7.88824V5.68093V2.03596H8.34563V1.12109H0V12.7966Z" fill="white"/>
<path d="M136.168 5.68093V2.03596H143V1.12109H134.654V12.8111H143V11.8963H136.168V10.8071C136.586 9.80512 137.58 9.10807 138.719 9.10807H142.395V8.35294H138.719C137.71 8.35294 136.816 8.78859 136.168 9.47111V7.90276V5.68093Z" fill="white"/>
</svg>
